<svg width="240" height="64" viewBox="0 0 240 64" fill="none" xmlns="http://www.w3.org/2000/svg">
  <defs>
    <linearGradient id="wmBg" x1="0" y1="0" x2="56" y2="56" gradientUnits="userSpaceOnUse">
      <stop offset="0" stop-color="#5FFCC8"/>
      <stop offset="1" stop-color="#1FDBA0"/>
    </linearGradient>
  </defs>

  <!-- Mark -->
  <rect x="0" y="4" width="56" height="56" rx="14" fill="url(#wmBg)"/>
  <g transform="translate(14 14)" fill="#06090A" fill-opacity="0.92">
    <path d="M15 0 C15.5 5, 18.5 8, 23.5 8.5 C24.4 8.6, 24.4 9.4, 23.5 9.5 C18.5 10, 15.5 13, 15 18 C14.9 18.7, 14.1 18.7, 14 18 C13.5 13, 10.5 10, 5.5 9.5 C4.6 9.4, 4.6 8.6, 5.5 8.5 C10.5 8, 13.5 5, 14 0 C14.1 -0.7, 14.9 -0.7, 15 0 Z"/>
    <path d="M25 18 C25.3 20, 26.5 21.2, 28.5 21.5 C29 21.6, 29 22.4, 28.5 22.5 C26.5 22.8, 25.3 24, 25 26 C24.9 26.5, 24.1 26.5, 24 26 C23.7 24, 22.5 22.8, 20.5 22.5 C20 22.4, 20 21.6, 20.5 21.5 C22.5 21.2, 23.7 20, 24 18 C24.1 17.5, 24.9 17.5, 25 18 Z"/>
  </g>

  <!-- Wordmark "Meetly AI" -->
  <text x="72" y="36" font-family="Space Grotesk, ui-sans-serif, system-ui" font-size="24" font-weight="700" fill="#FFFFFF" letter-spacing="-0.5">
    Meetly
  </text>
  <text x="160" y="36" font-family="Space Grotesk, ui-sans-serif, system-ui" font-size="24" font-weight="700" fill="#36F0B6" letter-spacing="-0.5">
    AI
  </text>
</svg>
