<svg width="256" height="256" viewBox="0 0 256 256" fill="none" xmlns="http://www.w3.org/2000/svg">
  <defs>
    <linearGradient id="meetlyBg" x1="0" y1="0" x2="256" y2="256" gradientUnits="userSpaceOnUse">
      <stop offset="0" stop-color="#5FFCC8"/>
      <stop offset="1" stop-color="#1FDBA0"/>
    </linearGradient>
    <linearGradient id="meetlyHighlight" x1="44" y1="44" x2="208" y2="208" gradientUnits="userSpaceOnUse">
      <stop offset="0" stop-color="#06090A" stop-opacity="0.95"/>
      <stop offset="1" stop-color="#0E1416" stop-opacity="0.85"/>
    </linearGradient>
  </defs>

  <rect x="0" y="0" width="256" height="256" rx="58" fill="url(#meetlyBg)"/>
  <rect x="6" y="6" width="244" height="244" rx="52" fill="none" stroke="#FFFFFF" stroke-opacity="0.18" stroke-width="2"/>

  <g transform="translate(60 60)" fill="url(#meetlyHighlight)">
    <path d="M68 0 C70 22, 82 40, 100 44 C103 45, 103 51, 100 52 C82 56, 70 74, 68 96 C67 99, 61 99, 60 96 C58 74, 46 56, 28 52 C25 51, 25 45, 28 44 C46 40, 58 22, 60 0 C61 -3, 67 -3, 68 0 Z"/>
    <path d="M120 8 C121 14, 124 18, 130 19 C132 19.5, 132 21.5, 130 22 C124 23, 121 27, 120 33 C119.5 35, 117.5 35, 117 33 C116 27, 113 23, 107 22 C105 21.5, 105 19.5, 107 19 C113 18, 116 14, 117 8 C117.5 6, 119.5 6, 120 8 Z"/>
    <path d="M18 86 C19 92, 22 96, 28 97 C30 97.5, 30 99.5, 28 100 C22 101, 19 105, 18 111 C17.5 113, 15.5 113, 15 111 C14 105, 11 101, 5 100 C3 99.5, 3 97.5, 5 97 C11 96, 14 92, 15 86 C15.5 84, 17.5 84, 18 86 Z"/>
  </g>
</svg>
